<svg width="44" height="44" viewBox="0 0 44 44" fill="none" xmlns="http://www.w3.org/2000/svg">
<path d="M21.9994 3.66675C12.0609 3.66675 3.66602 12.0616 3.66602 22.0001C3.66602 31.9386 12.0609 40.3334 21.9994 40.3334C31.9379 40.3334 40.3327 31.9386 40.3327 22.0001C40.3327 12.0616 31.9379 3.66675 21.9994 3.66675ZM21.9994 12.8334C25.1655 12.8334 27.4994 15.1654 27.4994 18.3334C27.4994 21.5014 25.1655 23.8334 21.9994 23.8334C18.835 23.8334 16.4994 21.5014 16.4994 18.3334C16.4994 15.1654 18.835 12.8334 21.9994 12.8334ZM12.6384 30.7487C14.2829 28.3287 17.0255 26.7154 20.166 26.7154H23.8327C26.975 26.7154 29.7159 28.3287 31.3604 30.7487C29.0174 33.2567 25.6935 34.8334 21.9994 34.8334C18.3052 34.8334 14.9814 33.2567 12.6384 30.7487Z" fill="#C2C6CC"/>
</svg>
